# xmcd
# 
# Track frame offsets:
#     183
#     10458
#     21858
#     33258
#     47033
#     59908
#     72508
#     85683
#     99033
#     111408
#     124783
#     137258
#     149908
#     162008
#     184483
#     197958
#     226283
#     254983
#     274783
#     307383
# 
# Disc length: 4406
# 
# Revision: 7
# Processed by: cddbd v1.5.2PL0 Copyright (c) Steve Scherf et al.
# Submitted via: fre:ac v1.0.31
# 
DISCID=35113414
DTITLE=Various Artist - The Gold Collection [CD2]
DYEAR=1995
DGENRE=Blues
TTITLE0=John Lee Hooker - Dimples
TTITLE1=John Lee Hooker - Boom Boom
TTITLE2=John Lee Hooker - Boogie Chillen
TTITLE3=Sonny Boy Williamson - Eyesight to the Blind
TTITLE4=Sonny Boy Williamson - Nine Below Zero
TTITLE5=Sonny Boy Williamson - Come on Back Home
TTITLE6=Elmore James - Dust My Broom
TTITLE7=Elmore James - Standing at the Crossroads
TTITLE8=Elmore James - Blues Before Sunrise
TTITLE9=B.B. King - Sweet Little Angel
TTITLE10=B.B. King - Everyday I Have the Blues
TTITLE11=B.B. King - Rock Me Baby
TTITLE12=Muddy Waters - Baby Please Don't Go
TTITLE13=Muddy Waters - Got My Mojo Working
TTITLE14=Muddy Waters - I'm Your Hoochie Coochie Man
TTITLE15=Howlin' Wolf - Little Red Rooster
TTITLE16=Howlin' Wolf - Going Down Slow
TTITLE17=Howlin' Wolf - Howling for My Darlin'
TTITLE18=Freddie King - The Moon Is Rising
TTITLE19=Freddie King - Feelin' Alright
EXTD=
EXTT0=
EXTT1=
EXTT2=
EXTT3=
EXTT4=
EXTT5=
EXTT6=
EXTT7=
EXTT8=
EXTT9=
EXTT10=
EXTT11=
EXTT12=
EXTT13=
EXTT14=
EXTT15=
EXTT16=
EXTT17=
EXTT18=
EXTT19=
PLAYORDER=
